<svg version="1" xmlns="http://www.w3.org/2000/svg" width="682.667" height="682.667" viewBox="0 0 512.000000 512.000000"><path d="M209.7.7c-1.1 1-.8 10.9.8 24.8 4.9 43.5-1.7 81.8-22.5 130-11.6 26.8-13.3 30.5-13.9 30.4-.3 0-2.5-4.1-4.9-9-3-6.2-6-10.6-9.6-14.2-2.9-2.9-6.7-7.8-8.5-11-5.2-9.2-10.5-15.2-15.5-17.7-4.4-2.1-4.8-2.1-7.1-.6-3.1 2-10.2 16.5-22.5 46-5 12-11.9 28-15.2 35.5C79.1 241.3 67.7 279.4 65 301c-2.9 23.5.9 54.3 9.6 77.5 4.4 11.7 13.2 27.8 20.6 37.7 3.9 5.1 10.1 13.8 13.9 19.3 20.8 30.6 51.8 52.9 92 66.3 24 8 35.4 9.7 64.4 9.6 21.8 0 25.2-.3 37.7-2.7 24.6-4.8 51.3-14.8 68.8-25.6 51.3-31.9 76-82.9 76-156.8 0-30.2-4.8-53.6-18.5-90.7-19.3-52.3-34.6-83-55.5-111.5-3.6-4.9-10.5-14.5-15.5-21.3-11.5-15.7-18-22.7-19.8-20.9-.8.8-1.4 7-1.8 19.4-.7 19.2-2.4 28.6-8.1 43.6l-2.4 6.4-1.8-6.4c-2.6-9.3-12.2-34.1-16.8-43.3-5.3-10.5-13.5-23.5-20.3-32.1-3-3.9-8.2-10.8-11.4-15.5-15.7-22.2-35.6-40.2-56.2-50.5-6.9-3.5-9-4.1-10.2-2.8zm61.7 177.5c4.8 19.2 13.5 32.4 29.4 44.8 4.2 3.3 9.7 7.6 12.2 9.6 6.5 5.2 12.2 8.3 19.8 10.9l6.7 2.3.3 18.3c.1 10.1.1 18.8-.2 19.4-.5 1.4-13.9.2-24.1-2.1-13.8-3.2-32.1-10.9-40.2-17-1.7-1.3-3.4-2.4-3.7-2.4-.3 0-.6 30.8-.6 68.5V399h44l-28.6 32.7c-15.8 18.1-29.6 33.8-30.8 35.1l-2.1 2.2-11.5-13.1c-6.3-7.3-12.8-14.8-14.5-16.7-1.6-2-7.5-8.6-13-14.7-5.5-6-12.8-14.3-16.3-18.2l-6.3-7.3 21.8-.2 21.8-.3.3-110.8.2-110.7h17.5c13.2 0 17.6.3 17.9 1.2z"/></svg>